<mxfile host="app.diagrams.net" modified="2023-09-30T20:07:27.435Z" agent="Mozilla/5.0 (Windows NT 10.0; Win64; x64) AppleWebKit/537.36 (KHTML, like Gecko) Chrome/116.0.0.0 Safari/537.36 Edg/116.0.1938.81" etag="dqxDel_nKF9pVe8TPfoy" version="21.7.1" type="device">
  <diagram name="Seite-1" id="G6QaZxITo2PuJStHqtIK">
    <mxGraphModel dx="1002" dy="543" grid="1" gridSize="10" guides="1" tooltips="1" connect="1" arrows="1" fold="1" page="1" pageScale="1" pageWidth="827" pageHeight="1169" math="0" shadow="0">
      <root>
        <mxCell id="0" />
        <mxCell id="1" parent="0" />
        <mxCell id="4vh3qNBbl_RFJpsE95yI-6" style="edgeStyle=orthogonalEdgeStyle;rounded=0;orthogonalLoop=1;jettySize=auto;html=1;exitX=0.5;exitY=1;exitDx=0;exitDy=0;" edge="1" parent="1" source="4vh3qNBbl_RFJpsE95yI-1">
          <mxGeometry relative="1" as="geometry">
            <mxPoint x="360" y="280" as="targetPoint" />
          </mxGeometry>
        </mxCell>
        <mxCell id="4vh3qNBbl_RFJpsE95yI-1" value="Struktur Produkte" style="rounded=0;whiteSpace=wrap;html=1;" vertex="1" parent="1">
          <mxGeometry x="380" y="160" width="120" height="60" as="geometry" />
        </mxCell>
        <mxCell id="4vh3qNBbl_RFJpsE95yI-5" style="edgeStyle=orthogonalEdgeStyle;rounded=0;orthogonalLoop=1;jettySize=auto;html=1;exitX=0.5;exitY=1;exitDx=0;exitDy=0;entryX=0.5;entryY=0;entryDx=0;entryDy=0;" edge="1" parent="1" source="4vh3qNBbl_RFJpsE95yI-2" target="4vh3qNBbl_RFJpsE95yI-3">
          <mxGeometry relative="1" as="geometry" />
        </mxCell>
        <mxCell id="4vh3qNBbl_RFJpsE95yI-2" value="optimierte Struktur Edukte" style="rounded=0;whiteSpace=wrap;html=1;" vertex="1" parent="1">
          <mxGeometry x="210" y="160" width="120" height="60" as="geometry" />
        </mxCell>
        <mxCell id="4vh3qNBbl_RFJpsE95yI-3" value="Orca NEB-TS Berechnung" style="rounded=0;whiteSpace=wrap;html=1;" vertex="1" parent="1">
          <mxGeometry x="300" y="280" width="120" height="60" as="geometry" />
        </mxCell>
      </root>
    </mxGraphModel>
  </diagram>
</mxfile>
